{
	"asset":{
		"generator":"Khronos glTF Blender I/O v4.2.69",
		"version":"2.0"
	},
	"extensionsUsed":[
		"KHR_materials_specular",
		"KHR_materials_ior"
	],
	"scene":0,
	"scenes":[
		{
			"name":"Scene",
			"nodes":[
				8
			]
		}
	],
	"nodes":[
		{
			"mesh":0,
			"name":"Laces.006",
			"rotation":[
				0,
				0,
				0.22290825843811035,
				0.974839448928833
			],
			"translation":[
				-0.0868234634399414,
				0.08057145029306412,
				-0.0011792778968811035
			]
		},
		{
			"mesh":1,
			"name":"Nike Air Force Left.001"
		},
		{
			"mesh":2,
			"name":"Nike Air Force Left.002"
		},
		{
			"mesh":3,
			"name":"Nike Air Force Left.003"
		},
		{
			"mesh":4,
			"name":"Nike Air Force Left.004"
		},
		{
			"mesh":5,
			"name":"Nike Logo left.005",
			"rotation":[
				0,
				0.086723692715168,
				0,
				0.9962325096130371
			],
			"translation":[
				0.21281427145004272,
				0.06500954180955887,
				0.03324848413467407
			]
		},
		{
			"mesh":6,
			"name":"Shoe Flap.010",
			"translation":[
				0,
				-0.005194788798689842,
				0
			]
		},
		{
			"mesh":7,
			"name":"Shoe Flap.011",
			"translation":[
				0,
				-0.004953576717525721,
				0
			]
		},
		{
			"children":[
				0,
				1,
				2,
				3,
				4,
				5,
				6,
				7
			],
			"mesh":8,
			"name":"Nike Air Force Left",
			"translation":[
				0,
				0,
				0.015649497509002686
			]
		}
	],
	"materials":[
		{
			"doubleSided":true,
			"name":"Laces Material"
		},
		{
			"doubleSided":true,
			"name":"Main Shoe Inside"
		},
		{
			"doubleSided":true,
			"extensions":{
				"KHR_materials_specular":{
					"specularFactor":0.803636372089386
				},
				"KHR_materials_ior":{
					"ior":1.4500000476837158
				}
			},
			"name":"Main Body Material"
		},
		{
			"doubleSided":true,
			"name":"Sole Material"
		},
		{
			"doubleSided":true,
			"name":"Material.003",
			"pbrMetallicRoughness":{
				"baseColorFactor":[
					0.800000011920929,
					0.800000011920929,
					0.800000011920929,
					1
				],
				"metallicFactor":0,
				"roughnessFactor":0.5
			}
		},
		{
			"doubleSided":true,
			"name":"Logo left Material"
		},
		{
			"doubleSided":true,
			"name":"Flap Material.002"
		},
		{
			"doubleSided":true,
			"name":"Tag material"
		},
		{
			"doubleSided":true,
			"name":"Insole Material"
		}
	],
	"meshes":[
		{
			"name":"Plane.042",
			"primitives":[
				{
					"attributes":{
						"POSITION":0,
						"NORMAL":1,
						"TEXCOORD_0":2
					},
					"indices":3,
					"material":0
				}
			]
		},
		{
			"name":"Plane.001",
			"primitives":[
				{
					"attributes":{
						"POSITION":4,
						"NORMAL":5,
						"TEXCOORD_0":6
					},
					"indices":7,
					"material":1
				}
			]
		},
		{
			"name":"Plane.002",
			"primitives":[
				{
					"attributes":{
						"POSITION":8,
						"NORMAL":9,
						"TEXCOORD_0":10
					},
					"indices":11,
					"material":2
				}
			]
		},
		{
			"name":"Plane.003",
			"primitives":[
				{
					"attributes":{
						"POSITION":12,
						"NORMAL":13,
						"TEXCOORD_0":14
					},
					"indices":15,
					"material":3
				}
			]
		},
		{
			"name":"Plane.004",
			"primitives":[
				{
					"attributes":{
						"POSITION":16,
						"NORMAL":17,
						"TEXCOORD_0":18
					},
					"indices":19,
					"material":4
				}
			]
		},
		{
			"name":"Mesh.025",
			"primitives":[
				{
					"attributes":{
						"POSITION":20,
						"NORMAL":21,
						"TEXCOORD_0":22
					},
					"indices":23,
					"material":5
				}
			]
		},
		{
			"name":"Plane.043",
			"primitives":[
				{
					"attributes":{
						"POSITION":24,
						"NORMAL":25,
						"TEXCOORD_0":26
					},
					"indices":27,
					"material":6
				}
			]
		},
		{
			"name":"Plane.045",
			"primitives":[
				{
					"attributes":{
						"POSITION":28,
						"NORMAL":29,
						"TEXCOORD_0":30
					},
					"indices":31,
					"material":7
				}
			]
		},
		{
			"name":"Plane.044",
			"primitives":[
				{
					"attributes":{
						"POSITION":32,
						"NORMAL":33,
						"TEXCOORD_0":34
					},
					"indices":35,
					"material":8
				}
			]
		}
	],
	"accessors":[
		{
			"bufferView":0,
			"componentType":5126,
			"count":31490,
			"max":[
				0.13296596705913544,
				0.0255618616938591,
				0.03655172139406204
			],
			"min":[
				-0.011796170845627785,
				-0.008917280472815037,
				-0.04703877866268158
			],
			"type":"VEC3"
		},
		{
			"bufferView":1,
			"componentType":5126,
			"count":31490,
			"type":"VEC3"
		},
		{
			"bufferView":2,
			"componentType":5126,
			"count":31490,
			"type":"VEC2"
		},
		{
			"bufferView":3,
			"componentType":5123,
			"count":188928,
			"type":"SCALAR"
		},
		{
			"bufferView":4,
			"componentType":5126,
			"count":1655,
			"max":[
				0.23229925334453583,
				0.1556469351053238,
				0.08540623635053635
			],
			"min":[
				-0.23309633135795593,
				0.0020578850526362658,
				-0.08524521440267563
			],
			"type":"VEC3"
		},
		{
			"bufferView":5,
			"componentType":5126,
			"count":1655,
			"type":"VEC3"
		},
		{
			"bufferView":6,
			"componentType":5126,
			"count":1655,
			"type":"VEC2"
		},
		{
			"bufferView":7,
			"componentType":5123,
			"count":7293,
			"type":"SCALAR"
		},
		{
			"bufferView":8,
			"componentType":5126,
			"count":20491,
			"max":[
				0.23340171575546265,
				0.16013570129871368,
				0.08732615411281586
			],
			"min":[
				-0.2327832281589508,
				0.01017262414097786,
				-0.08721800893545151
			],
			"type":"VEC3"
		},
		{
			"bufferView":9,
			"componentType":5126,
			"count":20491,
			"type":"VEC3"
		},
		{
			"bufferView":10,
			"componentType":5126,
			"count":20491,
			"type":"VEC2"
		},
		{
			"bufferView":11,
			"componentType":5123,
			"count":72360,
			"type":"SCALAR"
		},
		{
			"bufferView":12,
			"componentType":5126,
			"count":5158,
			"max":[
				0.24073204398155212,
				0.03317699581384659,
				0.08957837522029877
			],
			"min":[
				-0.24186371266841888,
				-0.041976723819971085,
				-0.0896526649594307
			],
			"type":"VEC3"
		},
		{
			"bufferView":13,
			"componentType":5126,
			"count":5158,
			"type":"VEC3"
		},
		{
			"bufferView":14,
			"componentType":5126,
			"count":5158,
			"type":"VEC2"
		},
		{
			"bufferView":15,
			"componentType":5123,
			"count":19683,
			"type":"SCALAR"
		},
		{
			"bufferView":16,
			"componentType":5126,
			"count":7820,
			"max":[
				0.225666344165802,
				0.13518741726875305,
				-0.05497878044843674
			],
			"min":[
				-0.020778236910700798,
				0.012118729762732983,
				-0.08755701035261154
			],
			"type":"VEC3"
		},
		{
			"bufferView":17,
			"componentType":5126,
			"count":7820,
			"type":"VEC3"
		},
		{
			"bufferView":18,
			"componentType":5126,
			"count":7820,
			"type":"VEC2"
		},
		{
			"bufferView":19,
			"componentType":5123,
			"count":41982,
			"type":"SCALAR"
		},
		{
			"bufferView":20,
			"componentType":5126,
			"count":15533,
			"max":[
				0.006561036221683025,
				0.04341399669647217,
				0.002236411441117525
			],
			"min":[
				-0.21689081192016602,
				-0.02200505882501602,
				-0.02107372134923935
			],
			"type":"VEC3"
		},
		{
			"bufferView":21,
			"componentType":5126,
			"count":15533,
			"type":"VEC3"
		},
		{
			"bufferView":22,
			"componentType":5126,
			"count":15533,
			"type":"VEC2"
		},
		{
			"bufferView":23,
			"componentType":5123,
			"count":83328,
			"type":"SCALAR"
		},
		{
			"bufferView":24,
			"componentType":5126,
			"count":2904,
			"max":[
				0.0884006917476654,
				0.17963390052318573,
				0.033439625054597855
			],
			"min":[
				-0.11792172491550446,
				0.038276541978120804,
				-0.05884762108325958
			],
			"type":"VEC3"
		},
		{
			"bufferView":25,
			"componentType":5126,
			"count":2904,
			"type":"VEC3"
		},
		{
			"bufferView":26,
			"componentType":5126,
			"count":2904,
			"type":"VEC2"
		},
		{
			"bufferView":27,
			"componentType":5123,
			"count":16386,
			"type":"SCALAR"
		},
		{
			"bufferView":28,
			"componentType":5126,
			"count":159,
			"max":[
				0.07090281695127487,
				0.17963390052318573,
				0.011944342404603958
			],
			"min":[
				0.031661078333854675,
				0.15796002745628357,
				-0.039091404527425766
			],
			"type":"VEC3"
		},
		{
			"bufferView":29,
			"componentType":5126,
			"count":159,
			"type":"VEC3"
		},
		{
			"bufferView":30,
			"componentType":5126,
			"count":159,
			"type":"VEC2"
		},
		{
			"bufferView":31,
			"componentType":5123,
			"count":720,
			"type":"SCALAR"
		},
		{
			"bufferView":32,
			"componentType":5126,
			"count":1173,
			"max":[
				0.23229925334453583,
				0.021802114322781563,
				0.08494789898395538
			],
			"min":[
				-0.23309633135795593,
				0.0020578850526362658,
				-0.08477433770895004
			],
			"type":"VEC3"
		},
		{
			"bufferView":33,
			"componentType":5126,
			"count":1173,
			"type":"VEC3"
		},
		{
			"bufferView":34,
			"componentType":5126,
			"count":1173,
			"type":"VEC2"
		},
		{
			"bufferView":35,
			"componentType":5123,
			"count":6600,
			"type":"SCALAR"
		}
	],
	"bufferViews":[
		{
			"buffer":0,
			"byteLength":377880,
			"byteOffset":0,
			"target":34962
		},
		{
			"buffer":0,
			"byteLength":377880,
			"byteOffset":377880,
			"target":34962
		},
		{
			"buffer":0,
			"byteLength":251920,
			"byteOffset":755760,
			"target":34962
		},
		{
			"buffer":0,
			"byteLength":377856,
			"byteOffset":1007680,
			"target":34963
		},
		{
			"buffer":0,
			"byteLength":19860,
			"byteOffset":1385536,
			"target":34962
		},
		{
			"buffer":0,
			"byteLength":19860,
			"byteOffset":1405396,
			"target":34962
		},
		{
			"buffer":0,
			"byteLength":13240,
			"byteOffset":1425256,
			"target":34962
		},
		{
			"buffer":0,
			"byteLength":14586,
			"byteOffset":1438496,
			"target":34963
		},
		{
			"buffer":0,
			"byteLength":245892,
			"byteOffset":1453084,
			"target":34962
		},
		{
			"buffer":0,
			"byteLength":245892,
			"byteOffset":1698976,
			"target":34962
		},
		{
			"buffer":0,
			"byteLength":163928,
			"byteOffset":1944868,
			"target":34962
		},
		{
			"buffer":0,
			"byteLength":144720,
			"byteOffset":2108796,
			"target":34963
		},
		{
			"buffer":0,
			"byteLength":61896,
			"byteOffset":2253516,
			"target":34962
		},
		{
			"buffer":0,
			"byteLength":61896,
			"byteOffset":2315412,
			"target":34962
		},
		{
			"buffer":0,
			"byteLength":41264,
			"byteOffset":2377308,
			"target":34962
		},
		{
			"buffer":0,
			"byteLength":39366,
			"byteOffset":2418572,
			"target":34963
		},
		{
			"buffer":0,
			"byteLength":93840,
			"byteOffset":2457940,
			"target":34962
		},
		{
			"buffer":0,
			"byteLength":93840,
			"byteOffset":2551780,
			"target":34962
		},
		{
			"buffer":0,
			"byteLength":62560,
			"byteOffset":2645620,
			"target":34962
		},
		{
			"buffer":0,
			"byteLength":83964,
			"byteOffset":2708180,
			"target":34963
		},
		{
			"buffer":0,
			"byteLength":186396,
			"byteOffset":2792144,
			"target":34962
		},
		{
			"buffer":0,
			"byteLength":186396,
			"byteOffset":2978540,
			"target":34962
		},
		{
			"buffer":0,
			"byteLength":124264,
			"byteOffset":3164936,
			"target":34962
		},
		{
			"buffer":0,
			"byteLength":166656,
			"byteOffset":3289200,
			"target":34963
		},
		{
			"buffer":0,
			"byteLength":34848,
			"byteOffset":3455856,
			"target":34962
		},
		{
			"buffer":0,
			"byteLength":34848,
			"byteOffset":3490704,
			"target":34962
		},
		{
			"buffer":0,
			"byteLength":23232,
			"byteOffset":3525552,
			"target":34962
		},
		{
			"buffer":0,
			"byteLength":32772,
			"byteOffset":3548784,
			"target":34963
		},
		{
			"buffer":0,
			"byteLength":1908,
			"byteOffset":3581556,
			"target":34962
		},
		{
			"buffer":0,
			"byteLength":1908,
			"byteOffset":3583464,
			"target":34962
		},
		{
			"buffer":0,
			"byteLength":1272,
			"byteOffset":3585372,
			"target":34962
		},
		{
			"buffer":0,
			"byteLength":1440,
			"byteOffset":3586644,
			"target":34963
		},
		{
			"buffer":0,
			"byteLength":14076,
			"byteOffset":3588084,
			"target":34962
		},
		{
			"buffer":0,
			"byteLength":14076,
			"byteOffset":3602160,
			"target":34962
		},
		{
			"buffer":0,
			"byteLength":9384,
			"byteOffset":3616236,
			"target":34962
		},
		{
			"buffer":0,
			"byteLength":13200,
			"byteOffset":3625620,
			"target":34963
		}
	],
	"buffers":[
		{
			"byteLength":3638820,
			"uri":"left_right.bin"
		}
	]
}
