{
	"asset":{
		"generator":"Khronos glTF Blender I/O v4.2.69",
		"version":"2.0"
	},
	"scene":0,
	"scenes":[
		{
			"name":"Scene",
			"nodes":[
				0
			]
		}
	],
	"nodes":[
		{
			"mesh":0,
			"name":"18_4R38",
			"rotation":[
				0,
				0.7071068286895752,
				0,
				0.7071068286895752
			]
		}
	],
	"materials":[
		{
			"doubleSided":true,
			"name":"tireper_mat",
			"normalTexture":{
				"index":0
			},
			"pbrMetallicRoughness":{
				"baseColorTexture":{
					"index":1
				},
				"metallicFactor":0,
				"roughnessFactor":0.5
			}
		}
	],
	"meshes":[
		{
			"name":"18_4R38Shape",
			"primitives":[
				{
					"attributes":{
						"POSITION":0,
						"NORMAL":1,
						"TEXCOORD_0":2
					},
					"indices":3,
					"material":0
				}
			]
		}
	],
	"textures":[
		{
			"sampler":0,
			"source":0
		},
		{
			"sampler":0,
			"source":1
		}
	],
	"images":[
		{
			"mimeType":"image/png",
			"name":"normal_map.png",
			"uri":"normal_map_png.png"
		},
		{
			"mimeType":"image/png",
			"name":"Ao_map.png",
			"uri":"Ao_map_png.png"
		}
	],
	"accessors":[
		{
			"bufferView":0,
			"componentType":5126,
			"count":2562,
			"max":[
				0.26364466547966003,
				0.874904215335846,
				0.8767166137695312
			],
			"min":[
				-0.26364490389823914,
				-0.8749022483825684,
				-0.8767169117927551
			],
			"type":"VEC3"
		},
		{
			"bufferView":1,
			"componentType":5126,
			"count":2562,
			"type":"VEC3"
		},
		{
			"bufferView":2,
			"componentType":5126,
			"count":2562,
			"type":"VEC2"
		},
		{
			"bufferView":3,
			"componentType":5123,
			"count":11214,
			"type":"SCALAR"
		}
	],
	"bufferViews":[
		{
			"buffer":0,
			"byteLength":30744,
			"byteOffset":0,
			"target":34962
		},
		{
			"buffer":0,
			"byteLength":30744,
			"byteOffset":30744,
			"target":34962
		},
		{
			"buffer":0,
			"byteLength":20496,
			"byteOffset":61488,
			"target":34962
		},
		{
			"buffer":0,
			"byteLength":22428,
			"byteOffset":81984,
			"target":34963
		}
	],
	"samplers":[
		{
			"magFilter":9729,
			"minFilter":9987
		}
	],
	"buffers":[
		{
			"byteLength":104412,
			"uri":"llanta.bin"
		}
	]
}
