{
	"asset":{
		"generator":"Khronos glTF Blender I/O v4.2.69",
		"version":"2.0"
	},
	"extensionsUsed":[
		"KHR_materials_specular",
		"KHR_materials_ior"
	],
	"scene":0,
	"scenes":[
		{
			"name":"Scene",
			"nodes":[
				0,
				1
			]
		}
	],
	"nodes":[
		{
			"mesh":0,
			"name":"18_4R38dual",
			"translation":[
				0.6000000238418579,
				0.8565880060195923,
				0
			]
		},
		{
			"mesh":1,
			"name":"DW_15_38dual",
			"translation":[
				0.6000000238418579,
				0.8565876483917236,
				0
			]
		}
	],
	"materials":[
		{
			"doubleSided":true,
			"name":"tireper_mat",
			"normalTexture":{
				"index":0
			},
			"pbrMetallicRoughness":{
				"baseColorTexture":{
					"index":1
				},
				"metallicFactor":0,
				"roughnessFactor":0.5
			}
		},
		{
			"doubleSided":true,
			"extensions":{
				"KHR_materials_specular":{
					"specularFactor":0.8272727131843567
				},
				"KHR_materials_ior":{
					"ior":1.4500000476837158
				}
			},
			"name":"disc_mat",
			"normalTexture":{
				"index":2
			},
			"pbrMetallicRoughness":{
				"baseColorTexture":{
					"index":3
				},
				"metallicFactor":0.5045454502105713,
				"roughnessFactor":0.5136363506317139
			}
		},
		{
			"doubleSided":true,
			"extensions":{
				"KHR_materials_specular":{
					"specularColorFactor":[
						2.0,
						2.0,
						2.0
					]
				},
				"KHR_materials_ior":{
					"ior":1.4500000476837158
				}
			},
			"name":"gold_mat",
			"normalTexture":{
				"index":4
			},
			"pbrMetallicRoughness":{
				"baseColorTexture":{
					"index":5
				},
				"metallicFactor":0.5227272510528564,
				"roughnessFactor":0.34545454382896423
			}
		},
		{
			"doubleSided":true,
			"emissiveFactor":[
				0.0054279291070997715,
				0.0054279291070997715,
				0.0054279291070997715
			],
			"extensions":{
				"KHR_materials_specular":{
					"specularColorFactor":[
						2.0,
						2.0,
						2.0
					]
				},
				"KHR_materials_ior":{
					"ior":1.4500000476837158
				}
			},
			"name":"Green_mat",
			"normalTexture":{
				"index":6
			},
			"pbrMetallicRoughness":{
				"baseColorFactor":[
					0.013380276039242744,
					0.14970211684703827,
					0.2615359127521515,
					1
				],
				"baseColorTexture":{
					"index":7
				},
				"metallicFactor":0.5,
				"roughnessFactor":0.6000000238418579
			}
		}
	],
	"meshes":[
		{
			"name":"18_4R38Shape.002",
			"primitives":[
				{
					"attributes":{
						"POSITION":0,
						"NORMAL":1,
						"TEXCOORD_0":2
					},
					"indices":3,
					"material":0
				}
			]
		},
		{
			"name":"DW_15_38dualShape",
			"primitives":[
				{
					"attributes":{
						"POSITION":4,
						"NORMAL":5,
						"TEXCOORD_0":6
					},
					"indices":7,
					"material":1
				},
				{
					"attributes":{
						"POSITION":8,
						"NORMAL":9,
						"TEXCOORD_0":10
					},
					"indices":11,
					"material":0
				},
				{
					"attributes":{
						"POSITION":12,
						"NORMAL":13,
						"TEXCOORD_0":14
					},
					"indices":15,
					"material":2
				},
				{
					"attributes":{
						"POSITION":16,
						"NORMAL":17,
						"TEXCOORD_0":18
					},
					"indices":19,
					"material":3
				}
			]
		}
	],
	"textures":[
		{
			"sampler":0,
			"source":0
		},
		{
			"sampler":0,
			"source":1
		},
		{
			"sampler":0,
			"source":0
		},
		{
			"sampler":0,
			"source":1
		},
		{
			"sampler":0,
			"source":0
		},
		{
			"sampler":0,
			"source":1
		},
		{
			"sampler":0,
			"source":0
		},
		{
			"sampler":0,
			"source":1
		}
	],
	"images":[
		{
			"mimeType":"image/png",
			"name":"normal_map.png",
			"uri":"normal_map_png.png"
		},
		{
			"mimeType":"image/png",
			"name":"Ao_map.png",
			"uri":"Ao_map_png.png"
		}
	],
	"accessors":[
		{
			"bufferView":0,
			"componentType":5126,
			"count":2562,
			"max":[
				0.26364466547966003,
				0.874904215335846,
				0.8767166137695312
			],
			"min":[
				-0.26364490389823914,
				-0.8749022483825684,
				-0.8767169117927551
			],
			"type":"VEC3"
		},
		{
			"bufferView":1,
			"componentType":5126,
			"count":2562,
			"type":"VEC3"
		},
		{
			"bufferView":2,
			"componentType":5126,
			"count":2562,
			"type":"VEC2"
		},
		{
			"bufferView":3,
			"componentType":5123,
			"count":11214,
			"type":"SCALAR"
		},
		{
			"bufferView":4,
			"componentType":5126,
			"count":1998,
			"max":[
				0.20500017702579498,
				0.5123290419578552,
				0.5123289227485657
			],
			"min":[
				-0.2050001174211502,
				-0.5123289823532104,
				-0.5123291015625
			],
			"type":"VEC3"
		},
		{
			"bufferView":5,
			"componentType":5126,
			"count":1998,
			"type":"VEC3"
		},
		{
			"bufferView":6,
			"componentType":5126,
			"count":1998,
			"type":"VEC2"
		},
		{
			"bufferView":7,
			"componentType":5123,
			"count":9216,
			"type":"SCALAR"
		},
		{
			"bufferView":8,
			"componentType":5126,
			"count":67,
			"max":[
				-0.12563464045524597,
				-0.4209883213043213,
				0.009578528814017773
			],
			"min":[
				-0.16647568345069885,
				-0.46951013803482056,
				-0.009700512513518333
			],
			"type":"VEC3"
		},
		{
			"bufferView":9,
			"componentType":5126,
			"count":67,
			"type":"VEC3"
		},
		{
			"bufferView":10,
			"componentType":5126,
			"count":67,
			"type":"VEC2"
		},
		{
			"bufferView":11,
			"componentType":5123,
			"count":240,
			"type":"SCALAR"
		},
		{
			"bufferView":12,
			"componentType":5126,
			"count":12,
			"max":[
				-0.1476362943649292,
				-0.4294077157974243,
				0.004800009075552225
			],
			"min":[
				-0.15979672968387604,
				-0.4412853717803955,
				-0.003960257396101952
			],
			"type":"VEC3"
		},
		{
			"bufferView":13,
			"componentType":5126,
			"count":12,
			"type":"VEC3"
		},
		{
			"bufferView":14,
			"componentType":5126,
			"count":12,
			"type":"VEC2"
		},
		{
			"bufferView":15,
			"componentType":5123,
			"count":30,
			"type":"SCALAR"
		},
		{
			"bufferView":16,
			"componentType":5126,
			"count":104,
			"max":[
				-0.10292690992355347,
				0.14482161402702332,
				0.1448216587305069
			],
			"min":[
				-0.1243378072977066,
				-0.14482161402702332,
				-0.14482156932353973
			],
			"type":"VEC3"
		},
		{
			"bufferView":17,
			"componentType":5126,
			"count":104,
			"type":"VEC3"
		},
		{
			"bufferView":18,
			"componentType":5126,
			"count":104,
			"type":"VEC2"
		},
		{
			"bufferView":19,
			"componentType":5123,
			"count":432,
			"type":"SCALAR"
		}
	],
	"bufferViews":[
		{
			"buffer":0,
			"byteLength":30744,
			"byteOffset":0,
			"target":34962
		},
		{
			"buffer":0,
			"byteLength":30744,
			"byteOffset":30744,
			"target":34962
		},
		{
			"buffer":0,
			"byteLength":20496,
			"byteOffset":61488,
			"target":34962
		},
		{
			"buffer":0,
			"byteLength":22428,
			"byteOffset":81984,
			"target":34963
		},
		{
			"buffer":0,
			"byteLength":23976,
			"byteOffset":104412,
			"target":34962
		},
		{
			"buffer":0,
			"byteLength":23976,
			"byteOffset":128388,
			"target":34962
		},
		{
			"buffer":0,
			"byteLength":15984,
			"byteOffset":152364,
			"target":34962
		},
		{
			"buffer":0,
			"byteLength":18432,
			"byteOffset":168348,
			"target":34963
		},
		{
			"buffer":0,
			"byteLength":804,
			"byteOffset":186780,
			"target":34962
		},
		{
			"buffer":0,
			"byteLength":804,
			"byteOffset":187584,
			"target":34962
		},
		{
			"buffer":0,
			"byteLength":536,
			"byteOffset":188388,
			"target":34962
		},
		{
			"buffer":0,
			"byteLength":480,
			"byteOffset":188924,
			"target":34963
		},
		{
			"buffer":0,
			"byteLength":144,
			"byteOffset":189404,
			"target":34962
		},
		{
			"buffer":0,
			"byteLength":144,
			"byteOffset":189548,
			"target":34962
		},
		{
			"buffer":0,
			"byteLength":96,
			"byteOffset":189692,
			"target":34962
		},
		{
			"buffer":0,
			"byteLength":60,
			"byteOffset":189788,
			"target":34963
		},
		{
			"buffer":0,
			"byteLength":1248,
			"byteOffset":189848,
			"target":34962
		},
		{
			"buffer":0,
			"byteLength":1248,
			"byteOffset":191096,
			"target":34962
		},
		{
			"buffer":0,
			"byteLength":832,
			"byteOffset":192344,
			"target":34962
		},
		{
			"buffer":0,
			"byteLength":864,
			"byteOffset":193176,
			"target":34963
		}
	],
	"samplers":[
		{
			"magFilter":9729,
			"minFilter":9987
		}
	],
	"buffers":[
		{
			"byteLength":194040,
			"uri":"llanta.bin"
		}
	]
}
